<svg version="1.1" id="Layer_1" xmlns="http://www.w3.org/2000/svg" xmlns:xlink="http://www.w3.org/1999/xlink" x="0px" y="0px"
	 width="100%" viewBox="0 0 1024 1024" enable-background="new 0 0 1024 1024" xml:space="preserve">
<path fill="#000000" opacity="1.000000" stroke="none" 
	d="
M469.000549,579.386597 
	C463.334747,579.389404 458.167877,579.447266 453.003113,579.369141 
	C450.534149,579.331787 448.984344,580.118530 448.174805,582.659973 
	C441.506378,603.593933 434.745667,624.498535 428.034851,645.419067 
	C427.894836,645.855469 428.017212,646.375977 428.017212,647.130005 
	C431.883728,648.339050 435.868591,647.576355 439.776001,647.710754 
	C444.270233,647.865356 448.788666,647.577393 453.265076,647.908081 
	C457.072021,648.189331 459.472717,650.463135 459.234222,654.502319 
	C459.010620,658.288330 456.501678,659.977295 452.911285,660.268860 
	C452.248413,660.322632 451.578827,660.301575 450.912323,660.301636 
	C431.748108,660.303467 412.583893,660.317383 393.419708,660.295227 
	C387.943695,660.288940 384.911011,658.023438 384.892578,654.069763 
	C384.874664,650.228271 388.088684,647.799377 393.431519,647.735107 
	C398.096863,647.678955 402.779510,647.486511 407.424774,647.797729 
	C411.580780,648.076233 413.564545,646.647095 414.880585,642.521301 
	C426.565979,605.886963 438.504852,569.333496 450.341217,532.747192 
	C464.996002,487.449005 479.628448,442.143616 494.255615,396.836517 
	C495.368988,393.387787 496.363678,389.900757 497.493988,386.165588 
	C493.073334,384.628204 488.917847,385.540924 484.861176,385.344696 
	C481.535461,385.183807 478.188232,385.420776 474.867706,385.210754 
	C471.331787,384.987122 469.408844,382.653748 469.144806,379.343719 
	C468.863770,375.820435 471.051208,373.762482 474.350708,373.062073 
	C475.956635,372.721161 477.666351,372.807159 479.329163,372.805298 
	C506.159027,372.775543 532.988892,372.754211 559.818726,372.750671 
	C569.519348,372.749420 570.482544,373.416321 573.276917,382.514648 
	C588.620728,432.473389 603.913391,482.447906 619.269043,532.403015 
	C630.661926,569.466614 642.147766,606.501770 653.510986,643.574463 
	C654.440979,646.608582 655.979004,647.993591 659.210815,647.785645 
	C662.363708,647.582825 665.541138,647.706116 668.706421,647.764343 
	C673.950195,647.860901 677.178833,650.405762 677.082520,654.287048 
	C676.990479,657.996033 673.946167,660.284485 668.813599,660.294922 
	C652.482422,660.328064 636.151123,660.301819 619.819885,660.300781 
	C603.488647,660.299744 587.157410,660.302185 570.826172,660.300476 
	C569.493164,660.300354 568.156799,660.336060 566.827698,660.257874 
	C562.917175,660.027771 560.448364,657.932312 560.366760,654.040222 
	C560.282043,649.998169 563.040466,648.021057 566.797180,647.842773 
	C571.786011,647.605957 576.793274,647.785400 581.791138,647.698608 
	C583.569702,647.667725 585.468506,648.187805 587.221313,646.829956 
	C587.868652,643.952698 586.324890,641.396790 585.522217,638.782898 
	C580.048340,620.956848 574.276978,603.220459 568.987000,585.341003 
	C567.659424,580.854126 565.653381,579.284119 560.987305,579.310913 
	C530.492493,579.486206 499.996185,579.391968 469.000549,579.386597 
M559.396484,385.727936 
	C548.757996,384.800293 538.099182,385.511475 527.450867,385.352570 
	C521.989990,385.271027 521.706543,385.736603 523.359314,391.128998 
	C538.720459,441.247131 554.093201,491.361725 569.472961,541.474121 
	C579.726807,574.884583 590.096558,608.260254 600.148621,641.731262 
	C601.565552,646.449646 603.716370,648.056274 608.540100,647.857056 
	C617.356750,647.492859 626.199097,647.781555 635.029968,647.705872 
	C636.765381,647.691040 638.719055,648.303345 640.385254,646.483032 
	C640.089539,645.171448 639.857056,643.713196 639.430603,642.314148 
	C634.722107,626.866394 629.992981,611.424988 625.251221,595.987427 
	C607.018372,536.627319 588.835815,477.251556 570.488892,417.926697 
	C567.201416,407.296600 564.425964,396.481934 559.396484,385.727936 
M514.610657,408.800995 
	C513.122131,404.090668 511.633667,399.380371 509.680511,393.199646 
	C490.642273,451.715637 472.071075,508.796021 453.415100,566.136963 
	C490.348602,566.136963 526.311829,566.136963 563.126892,566.136963 
	C546.867859,513.447449 530.841675,461.512360 514.610657,408.800995 
z"/>
<path fill="#000000" opacity="1.000000" stroke="none" 
	d="
M284.674622,463.999939 
	C284.663269,439.509003 284.548309,415.517334 284.729950,391.527893 
	C284.765900,386.782471 283.377014,384.843353 278.490417,385.249359 
	C274.354828,385.592957 270.163483,385.395020 266.002289,385.263245 
	C262.153778,385.141418 259.725067,383.364380 259.640594,379.165527 
	C259.555847,374.952637 261.940491,373.042358 265.773376,372.847809 
	C270.094910,372.628448 274.433746,372.726562 278.765076,372.727509 
	C307.087646,372.733521 335.410248,372.748657 363.732819,372.769043 
	C365.397614,372.770233 367.098358,372.639282 368.719513,372.925720 
	C372.004517,373.506134 374.240662,375.349426 374.281586,378.929565 
	C374.325348,382.758087 372.023895,384.877258 368.469757,385.154388 
	C364.162811,385.490295 359.789398,385.582703 355.489227,385.233154 
	C350.697784,384.843628 349.236053,386.498047 349.251282,391.366058 
	C349.412445,442.846069 349.349915,494.326752 349.348785,545.807251 
	C349.348541,557.969299 349.377808,570.131470 349.340851,582.293396 
	C349.221252,621.624573 320.153839,657.151794 281.707764,664.990662 
	C237.105743,674.084717 193.508179,646.171204 182.848267,601.611084 
	C181.846863,597.425049 181.274353,593.120667 180.749268,588.840942 
	C180.239182,584.683594 182.413803,581.923645 186.367004,581.313232 
	C190.469543,580.679749 193.007812,583.261719 193.919708,587.048767 
	C194.774368,590.598145 194.928955,594.312134 195.715576,597.882385 
	C203.956329,635.283752 242.388153,659.676025 279.733246,651.442932 
	C283.996368,650.503052 284.724213,648.286377 284.718536,644.432129 
	C284.630402,584.454895 284.667114,524.477356 284.674622,463.999939 
M298.258728,402.502075 
	C298.258728,482.860626 298.258728,563.219177 298.258728,643.754150 
	C301.404785,643.397095 303.202850,641.821472 305.014984,640.468567 
	C325.133331,625.448853 335.882599,605.511841 335.941010,580.247375 
	C336.047699,534.112183 335.980499,487.976532 335.984222,441.841095 
	C335.985565,424.852600 335.972229,407.864136 335.990753,390.875641 
	C335.994019,387.887909 336.082062,385.205170 331.729828,385.281036 
	C321.906189,385.452271 312.076691,385.396149 302.251221,385.285950 
	C299.152649,385.251190 298.144806,386.613098 298.232635,389.512451 
	C298.353607,393.506042 298.260559,397.506073 298.258728,402.502075 
z"/>
<path fill="#000000" opacity="1.000000" stroke="none" 
	d="
M794.113403,522.000000 
	C794.115417,561.979675 794.116760,601.459290 794.119568,640.938965 
	C794.120056,647.727661 794.122742,647.730713 801.082642,647.740051 
	C806.246643,647.747009 811.412476,647.658691 816.574036,647.771973 
	C821.219788,647.873901 823.982178,650.347290 824.000610,654.133606 
	C824.018433,657.796082 821.146606,660.283569 816.439270,660.288147 
	C780.457825,660.323242 744.476318,660.318726 708.494934,660.269165 
	C703.761902,660.262634 700.884277,657.804810 701.136841,654.016418 
	C701.439758,649.474365 704.456116,647.788513 708.642456,647.750061 
	C713.639526,647.704163 718.645081,647.547363 723.632019,647.771790 
	C727.617676,647.951111 729.140808,646.286072 728.726868,642.465271 
	C728.637817,641.642273 728.719788,640.800903 728.719788,639.968018 
	C728.719543,557.510498 728.719666,475.052948 728.717651,392.595428 
	C728.717468,385.327576 728.710938,385.329376 721.288574,385.309967 
	C717.623962,385.300354 713.947266,385.462952 710.298096,385.218201 
	C706.617065,384.971283 703.829956,383.252350 703.760498,379.113892 
	C703.690125,374.920898 706.503113,373.368225 710.166138,372.883453 
	C711.151245,372.753082 712.161926,372.794189 713.160889,372.793671 
	C745.644104,372.776428 778.127380,372.763000 810.610596,372.753845 
	C811.609558,372.753571 812.616821,372.732086 813.605957,372.845245 
	C817.451599,373.285278 819.879211,375.342468 819.759766,379.326630 
	C819.647400,383.073944 817.193726,385.048859 813.577881,385.221558 
	C809.422302,385.419952 805.251465,385.310028 801.087219,385.314514 
	C794.125549,385.321960 794.124817,385.315430 794.124207,392.066620 
	C794.120361,435.211090 794.116943,478.355530 794.113403,522.000000 
M776.088562,385.333832 
	C767.090820,385.329987 758.093140,385.319611 749.095398,385.324432 
	C742.274414,385.328064 742.272705,385.336670 742.272034,392.213898 
	C742.266785,442.368439 742.259033,492.522949 742.258606,542.677490 
	C742.258301,575.836121 742.344055,608.995178 742.184631,642.153015 
	C742.163269,646.579041 743.528198,647.982056 747.893494,647.819641 
	C755.880615,647.522339 763.886475,647.727661 771.884521,647.724365 
	C780.022400,647.721069 780.050964,647.721558 780.051025,639.548523 
	C780.051514,558.568115 780.042114,477.587677 780.033752,396.607269 
	C780.033508,394.108124 780.031494,391.608765 779.998657,389.109894 
	C779.972107,387.092255 779.433411,385.450104 776.088562,385.333832 
z"/>
</svg>